<svg id="Layer_2" data-name="Layer 2" xmlns="http://www.w3.org/2000/svg" xmlns:xlink="http://www.w3.org/1999/xlink" viewBox="0 0 334.87 142.6"><defs><style>.cls-1{fill:url(#linear-gradient);}</style><linearGradient id="linear-gradient" x1="76.12" y1="224.03" x2="410.98" y2="224.03" gradientUnits="userSpaceOnUse"><stop offset="0" stop-color="#864eff"/><stop offset="1" stop-color="#3d3afc"/></linearGradient></defs><path class="cls-1" d="M210.32,167.88l-13.71-10.55a28.7,28.7,0,0,1,15.61-4.6H382.06a28.74,28.74,0,0,1,17,5.52L386,168.3a14,14,0,0,0-3.9-.57H212.22A13.17,13.17,0,0,0,210.32,167.88ZM386.69,279.53a14,14,0,0,1-4.63.81H212.22a14.07,14.07,0,0,1-2.77-.28l-10.95,8.43c-.5.39-1,.76-1.53,1.13l-.54.36-.48.33a28.75,28.75,0,0,0,16.27,5H382.06a28.77,28.77,0,0,0,17.51-5.93l-1.25-.92Zm-188.4-13.12V181.66a13.79,13.79,0,0,1,.52-3.71l-12.32-9.49a28.75,28.75,0,0,0-3.2,13.2v84.75a28.88,28.88,0,0,0,2.79,12.38,30.55,30.55,0,0,0,3.27-2.19l9.29-7.15A13.89,13.89,0,0,1,198.29,266.41ZM411,181.66a28.67,28.67,0,0,0-2.51-11.76l-12.65,9.74a13.43,13.43,0,0,1,.16,2v84.75c0,.43,0,.87-.06,1.29l11.56,8.9c.42.33.84.63,1.28.93A28.77,28.77,0,0,0,411,266.41Zm-152.85,42L198.81,178h0l59.32,45.68Zm-47.81-55.75h0l9.11,7Zm128.37,55.75,42.92-33-42.92,33Zm0,0,57.23,44.07h0l-57.23-44.07Zm-80.56,0-59.49,45.82h0l59.49-45.82Zm49.22,14.67a14.65,14.65,0,0,1-17.88,0l-12.9-9.93L275,229.58l-4.57,3.52,14.47,11.14a22.16,22.16,0,0,0,27,0L326.4,233.1l-4.58-3.52-1.57-1.21Zm-4.57-5.94a7.16,7.16,0,0,1-8.73,0l-11.33-8.73-6.15,4.74,12.9,9.93a14.65,14.65,0,0,0,17.88,0l12.9-9.93-6.14-4.74Zm17.68-4.16-.21.17,1.57,1.21A8.07,8.07,0,0,1,320.46,228.2Zm18.23-4.57Zm-62.33,4.57a7.4,7.4,0,0,1-1.36,1.38l1.57-1.21Zm44.1-9.14a8.39,8.39,0,0,1,1.36-1.37l-1.57,1.21Zm-62.33,4.57Zm18.23-4.57.21-.16L275,217.69A7.66,7.66,0,0,1,276.36,219.06Zm.21-.16-.21.16a7.44,7.44,0,0,1,0,9.14l.21.17,6.15-4.74Zm37.54,4.73,6.14,4.74.21-.17a7.47,7.47,0,0,1,0-9.14l-.21-.16Zm12.29,9.47,60.29,46.43h0L326.4,233.1Zm0-18.93L386,168.3h0L326.4,214.17Zm0,0-4.58,3.52a7.53,7.53,0,0,1,9.16,0l7.71,5.94,42.92-33,14.21-10.94A13.94,13.94,0,0,0,386,168.3L326.4,214.17Zm69.42-34.53,12.65-9.74A29,29,0,0,0,399,158.25L386,168.3A13.94,13.94,0,0,1,395.82,179.64ZM331,229.58a7.54,7.54,0,0,1-9.16,0l4.58,3.52h0l60.29,46.43a14,14,0,0,0,9.23-11.83l-57.23-44.07Zm64.94,38.12a14,14,0,0,1-9.23,11.83l11.63,9,1.25.92a29.16,29.16,0,0,0,9.19-11.88c-.44-.3-.86-.6-1.28-.93Zm-57.23-44.07L331,217.69a7.53,7.53,0,0,0-9.16,0,8.39,8.39,0,0,0-1.36,1.37l5.94,4.57-5.94,4.57a8.07,8.07,0,0,0,1.36,1.38,7.54,7.54,0,0,0,9.16,0l7.71-6Zm-18.23,4.57,5.94-4.57-5.94-4.57a7.47,7.47,0,0,0,0,9.14Zm-50-14h0l-51-39.27Zm0,18.93-61,47h0l61-47Zm-4.58-15.41a7.5,7.5,0,0,1,9.15,0l-4.57-3.52h0l-51-39.27-9.11-7A14,14,0,0,0,198.81,178l59.32,45.68Zm-55.53-49.81-13.71-10.55a29.15,29.15,0,0,0-10.12,11.13L198.81,178A14,14,0,0,1,210.32,167.88Zm60.11,65.22,4.57-3.52a7.52,7.52,0,0,1-9.15,0l-7.72-6-59.49,45.82a14,14,0,0,0,10.81,10.61l61-47ZM197,289.62c.51-.37,1-.74,1.53-1.13l10.95-8.43a14,14,0,0,1-10.81-10.61l-9.29,7.15a30.55,30.55,0,0,1-3.27,2.19A29.21,29.21,0,0,0,196,290.31l.48-.33Zm79.39-61.42-5.93-4.57,5.93-4.57a7.66,7.66,0,0,0-1.36-1.37,7.5,7.5,0,0,0-9.15,0l-7.72,5.94h0l7.72,6a7.52,7.52,0,0,0,9.15,0A7.4,7.4,0,0,0,276.36,228.2Zm0-9.14-5.93,4.57,5.93,4.57a7.44,7.44,0,0,0,0-9.14ZM146.6,184a7.5,7.5,0,0,0-7.5-7.5H118.66a7.5,7.5,0,0,0,0,15H139.1A7.5,7.5,0,0,0,146.6,184Zm6.62,74.49a7.5,7.5,0,0,0-7.5-7.5H110.23a7.5,7.5,0,0,0,0,15h35.49A7.49,7.49,0,0,0,153.22,258.53ZM93.83,224H94a7.5,7.5,0,0,0,7.34-7.48h0a7.51,7.51,0,0,0-7.5-7.49H83.62a7.5,7.5,0,1,0,0,15Z" transform="translate(-76.12 -152.73)"/></svg>